<svg xmlns="http://www.w3.org/2000/svg" xmlns:xlink="http://www.w3.org/1999/xlink" xmlns:inkscape="http://www.inkscape.org/namespaces/inkscape" version="1.1" width="1500" height="1500" viewBox="0 0 1500 1500">
<defs>
<clipPath id="clip_1">
<path transform="matrix(.24,0,0,.24,0,0)" d="M0 0H6250V6250H0Z" clip-rule="evenodd"/>
</clipPath>
<clipPath id="clip_2">
<path transform="matrix(.24,0,0,.24,0,0)" d="M0 0H6250V6250H0Z" clip-rule="evenodd"/>
</clipPath>
<clipPath id="clip_3">
<path transform="matrix(.24,0,0,.24,0,0)" d="M0 0H6250V6250H0Z"/>
</clipPath>
<clipPath id="clip_4">
<path transform="matrix(.24,0,0,.24,0,0)" d="M0 0H6250V6250H0Z"/>
</clipPath>
<clipPath id="clip_5">
<path transform="matrix(.24,0,0,.24,0,0)" d="M1825.7548 625H4424.245V3832.5118H1825.7548Z"/>
</clipPath>
<clipPath id="clip_6">
<path transform="matrix(.24,0,0,.24,0,0)" d="M2692.3863 700.03347C2825.1744 654.7301 2977.056 625 3125.6998 625 3274.3482 625 3417.3853 650.483 3549.1986 695.7864 3552.0069 697.2026 3554.8106 697.2026 3557.6138 698.61776 4052.6314 879.832 4417.2346 1358.349 4424.245 1917.5641V3823.1424H1825.7548V1918.9783C1832.7664 1355.5206 2191.759 877.0001 2692.3863 700.03347Z"/>
</clipPath>
<clipPath id="clip_7">
<path transform="matrix(.24,0,0,.24,438,150)" d="M0 0H2600V3199H0Z"/>
</clipPath>
<clipPath id="clip_8">
<path transform="matrix(.24,0,0,.24,0,0)" d="M2119.2877 1559.6046H4103.6628V3831.4796H2119.2877Z" clip-rule="evenodd"/>
</clipPath>
<clipPath id="clip_9">
<path transform="matrix(.24,0,0,.24,0,0)" d="M0 0H6250V6250H0Z" clip-rule="evenodd"/>
</clipPath>
<path id="font_10_74" d="M.037002565-.12600708 .18200684-.054992677C.20866902-.09899902 .2549998-.1210022 .32099916-.1210022 .3516693-.1210022 .38016764-.11116537 .40649415-.0914917 .4328308-.07182821 .44599916-.041666669 .44599916-.0010070801V.037002565C.41466777 .0023345948 .358668-.01499939 .27799989-.01499939 .20400493-.01499939 .14300537 .011164348 .09500122 .06349182 .04699707 .11582947 .022994996 .17999776 .022994996 .2559967 .022994996 .33199565 .04699707 .3963267 .09500122 .44898988 .14300537 .5016632 .20400493 .5279999 .27799989 .5279999 .34399925 .5279999 .39899699 .507665 .44299317 .46699525H.44599916V.5130005H.6230011V-.014007568C.6230011-.097340907 .59533187-.16167195 .5399933-.20700073 .48466493-.2523295 .41166688-.2749939 .32099916-.2749939 .17433167-.2749939 .07966614-.22533162 .037002565-.12600708M.24549866 .34300233C.22249858 .32033793 .21099854 .29133607 .21099854 .2559967 .21099854 .22066753 .22199504 .1918335 .24398804 .16949463 .2659912 .14716594 .29499308 .13600159 .33099366 .13600159 .36566163 .13600159 .39415995 .14733379 .41648866 .16999817 .4388275 .19266255 .44999696 .22132874 .44999696 .2559967 .44999696 .29133607 .43849693 .32033793 .41549684 .34300233 .39249674 .36566673 .364329 .3769989 .33099366 .3769989 .29699708 .3769989 .26849876 .36566673 .24549866 .34300233Z"/>
<path id="font_10_68" d="M.09500122 .06349182C.04699707 .11582947 .022994996 .17999776 .022994996 .2559967 .022994996 .33199565 .04699707 .3963267 .09500122 .44898988 .14300537 .5016632 .20400493 .5279999 .27799989 .5279999 .3460032 .5279999 .40200297 .5066681 .44599916 .46400453V.5130005H.6230011V0H.44799806V.057998659H.44599916C.40200297 .009333293 .3460032-.01499939 .27799989-.01499939 .20400493-.01499939 .14300537 .011164348 .09500122 .06349182M.24549866 .34300233C.22249858 .32033793 .21099854 .29133607 .21099854 .2559967 .21099854 .22066753 .22199504 .1918335 .24398804 .16949463 .2659912 .14716594 .29499308 .13600159 .33099366 .13600159 .36566163 .13600159 .39415995 .14733379 .41648866 .16999817 .4388275 .19266255 .44999696 .22132874 .44999696 .2559967 .44999696 .29133607 .43849693 .32033793 .41549684 .34300233 .39249674 .36566673 .364329 .3769989 .33099366 .3769989 .29699708 .3769989 .26849876 .36566673 .24549866 .34300233Z"/>
<path id="font_10_87" d="M.08999634 .5130005V.70399478H.2669983V.5130005H.375V.37800599H.2669983V.21499634C.2669983 .16766358 .28033448 .14399719 .30700685 .14399719 .31366984 .14399719 .32066856 .14532979 .32800294 .147995 .3353373 .1506602 .34100343 .15333049 .34500123 .15600586L.35099793 .16000366 .39500428 .016998291C.35699974-.004333496 .31366477-.01499939 .2649994-.01499939 .23166402-.01499939 .20299785-.009165446 .17900086 .0025024415 .15500386 .014170329 .13683574 .02983602 .12449646 .04949951 .11216736 .069163 .10333252 .08982849 .09799194 .11149597 .09266154 .13316345 .08999634 .15633138 .08999634 .18099976V.37800599H.01600647V.5130005H.08999634Z"/>
<path id="font_10_72" d="M.57899478 .23199463H.20700073C.20700073 .19599407 .21866353 .16932678 .24198914 .1519928 .26532493 .13466899 .29065959 .12600708 .31799317 .12600708 .34665934 .12600708 .36932374 .12983704 .38598634 .13749695 .4026591 .14516704 .42166139 .16033428 .44299317 .18299866L.57099917 .119003299C.5176646 .029668173 .42899577-.01499939 .30499269-.01499939 .22766114-.01499939 .1613261 .011500041 .10598755 .0644989 .05065918 .117497768 .022994996 .18133037 .022994996 .2559967 .022994996 .33066307 .05065918 .39466349 .10598755 .44799806 .1613261 .5013326 .22766114 .5279999 .30499269 .5279999 .38633219 .5279999 .4524994 .5044963 .50349429 .457489 .5544993 .41049195 .58000186 .34332786 .58000186 .2559967 .58000186 .2440033 .57966616 .23600261 .57899478 .23199463M.21200562 .33000184H.40699769C.40299989 .35666404 .39250184 .37716166 .37550355 .39149476 .35850526 .40582786 .33666993 .41299439 .30999757 .41299439 .28067018 .41299439 .25733949 .40532939 .2400055 .3899994 .22267151 .3746694 .21333821 .3546702 .21200562 .33000184Z"/>
<path id="font_10_17" d="M.17399597 .21400452C.20599874 .21400452 .23316448 .20283509 .25549317 .18049622 .27783204 .15816753 .28900147 .13100179 .28900147 .09899902 .28900147 .06766764 .27783204 .04083252 .25549317 .018493653 .23316448-.0038350423 .20599874-.01499939 .17399597-.01499939 .1426646-.01499939 .11582947-.0038350423 .0934906 .018493653 .0711619 .04083252 .05999756 .06766764 .05999756 .09899902 .05999756 .13100179 .0711619 .15816753 .0934906 .18049622 .11582947 .20283509 .1426646 .21400452 .17399597 .21400452Z"/>
<path id="font_10_70" d="M.33299256 .3829956C.29966737 .3829956 .2710012 .3706614 .24699402 .34599305 .22299703 .32133485 .21099854 .29167176 .21099854 .25700379 .21099854 .22166443 .22299703 .19166057 .24699402 .16699219 .2710012 .14233399 .29966737 .13000489 .33299256 .13000489 .34899394 .13000489 .36416117 .13200379 .37849427 .13600159 .39282737 .13999939 .40333048 .14399719 .41000367 .147995L.41900636 .15400696 .4790039 .03100586C.47433473 .027669272 .46783448 .023498536 .45950318 .018493653 .45117188 .013498942 .4321696 .006668091 .40249635-.0019989014 .37283326-.010665894 .34100343-.01499939 .30700685-.01499939 .23166912-.01499939 .16549683 .011500041 .10848999 .0644989 .051493329 .117497768 .022994996 .18099976 .022994996 .25500489 .022994996 .32967124 .051493329 .39383445 .10848999 .4474945 .16549683 .50116476 .23166912 .5279999 .30700685 .5279999 .34100343 .5279999 .3723348 .523997 .40100099 .5159912 .42966715 .5079956 .45000205 .5 .46200563 .4920044L.4790039 .47999574 .41900636 .35899354C.39700318 .3749949 .3683319 .3829956 .33299256 .3829956Z"/>
</defs>
<g>
<g clip-path="url(#clip_1)">
</g>
<g clip-path="url(#clip_2)">
</g>
<g clip-path="url(#clip_3)">
<g clip-path="url(#clip_4)">
<g clip-path="url(#clip_5)">
<g clip-path="url(#clip_6)">
<g>
<g clip-path="url(#clip_7)">
<path transform="matrix(2.4360848,0,0,2.4360848,438.18116,150)" d="M0 0H256V315H0Z" fill="#cbdd1a"/>
</g>
</g>
</g>
</g>
</g>
</g>
<g clip-path="url(#clip_8)">
<path transform="matrix(.3279339,0,0,.3276316,441.4035,343.50773)" d="M559.45 306.96C660.57 283.69 800.41006 287.16 876.47 318.13999 920.01998 235.85999 1036.9299 107.19998 1084.34 115.52998 1149.09 180.27999 1154.88 385.95 1154.88 507.52998 1246.89 625.22 1219.0701 863.32998 1086.96 965.44998 1093.6599 1045.0499 1220.8899 1134.2799 1289.01 1257.6699 1376.77 1416.6399 1372.59 1621.98 1360.13 1711.96 1413.47 1696.51 1460.51 1653.64 1488.48 1584.4099 1524.35 1495.6299 1492.09 1395.0299 1449.52 1269.1299 1399.65 1121.6299 1450.4 939.6199 1499.49 890.5299 1535.16 854.8599 1597.69 803.6499 1662.66 856.42996 1703.5801 889.6699 1683.4501 960.7999 1666.53 978.9899 1619.56 1029.47 1603.15 1038.84 1586.8201 1110.83 1568.6201 1191.07 1606.17 1256.13 1647.0701 1391.3099 1660.17 1434.62 1665.2001 1609.4199 1584.28 1716.1 1490.92 1839.1799 1392.72 1856.04 1327.92 1859.96 1254.9501 1926.39 1232.8401 1950.5399 1085.1101 1950.5399 1034.4601 1950.5399 910.2101 1961.2299 875.1501 1933.7399 845.6801 1963.2098 816.0101 2009.4299 755.00009 1988.9298 720.62008 1977.3798 720.4001 1942.8298 717.62008 1910.7598 706.62008 1909.6498 699.17007 1908.9597 686.93008 1908.9597 666.04006 1931.9797 616.4 1985.0897 582.56008 1985.0897 530.72006 1985.0897 497.78007 1937.0397 531.82009 1866.1897 461.55009 1677.8497 415.49006 1283.2097 477.37007 1048.5697 133.82 930.61 180.21 596.07 270.21 479.72 280.85 334.95 290.89 190.71 365.7 94 431.52 124.2 469.04 174.28 559.45 306.96Z"/>
<path transform="matrix(.3279339,0,0,.3276316,441.4035,343.50773)" d="M642.69 606.16C642.69009 610.0823 642.49789 613.9951 642.1134 617.8985 641.72897 621.8019 641.15408 625.677 640.3888 629.52389 639.6236 633.3708 638.67178 637.17098 637.53317 640.9244 636.39456 644.6778 635.07479 648.36636 633.5737 651.99008 632.07278 655.6138 630.39779 659.1553 628.5488 662.61447 626.6998 666.0735 624.6858 669.43368 622.5067 672.69497 620.32766 675.95626 617.99398 679.10287 615.5056 682.1348 613.0174 685.1668 610.38656 688.0695 607.61306 690.843 604.83956 693.6165 601.9368 696.2474 598.90487 698.7357 595.8729 701.22396 592.7263 703.5576 589.465 705.7367 586.20376 707.91586 582.84359 709.9299 579.3844 711.7788 575.9253 713.62777 572.38388 715.3027 568.7601 716.8037 565.13638 718.30477 561.4478 719.6245 557.69448 720.76309 553.94107 721.9017 550.14089 722.8535 546.29397 723.6187 542.447 724.384 538.5719 724.95889 534.6685 725.3433 530.76516 725.7278 526.8523 725.92 522.93 725.92 519.0077 725.92 515.09487 725.7278 511.1915 725.3433 507.2881 724.95889 503.41288 724.384 499.56593 723.6187 495.719 722.8535 491.91883 721.9017 488.16545 720.76309 484.41206 719.6245 480.7235 718.30477 477.09977 716.8037 473.47605 715.3027 469.9346 713.62777 466.47547 711.7788 463.0163 709.9299 459.65608 707.91586 456.3948 705.7367 453.13359 703.5576 449.98698 701.22396 446.95503 698.73568 443.92304 696.2474 441.0203 693.6165 438.24684 690.843 435.47337 688.0695 432.84248 685.1668 430.35423 682.1348 427.86595 679.10287 425.53224 675.95626 423.35313 672.69497 421.17405 669.43368 419.16004 666.0735 417.31108 662.6144 415.4621 659.1552 413.7871 655.6138 412.2861 651.99008 410.78514 648.36636 409.46534 644.6778 408.32676 640.9244 407.18818 637.17098 406.2363 633.3708 405.47108 629.52389 404.7059 625.677 404.13108 621.8018 403.74665 617.89846 403.3622 613.99508 403.16999 610.0823 403.16999 606.16 403.16999 602.23776 403.3622 598.3249 403.74668 594.42147 404.1311 590.51809 404.70594 586.6429 405.4711 582.7959 406.2363 578.949 407.1882 575.1488 408.32679 571.39547 409.46537 567.6421 410.78514 563.9535 412.2861 560.3297 413.7871 556.706 415.4621 553.16458 417.31108 549.70547 419.16004 546.2463 421.17405 542.8861 423.35313 539.6248 425.53224 536.3635 427.86595 533.2169 430.35423 530.185 432.8425 527.153 435.4734 524.2503 438.24687 521.4768 441.02037 518.7033 443.9231 516.07247 446.95506 513.5842 449.987 511.09593 453.1336 508.7622 456.39485 506.5831 459.6561 504.40403 463.01634 502.39 466.47547 500.54106 469.9346 498.6921 473.47605 497.01713 477.09977 495.51609 480.7235 494.0151 484.41209 492.69535 488.16548 491.55677 491.91886 490.41819 495.719 489.4663 499.56593 488.7011 503.41288 487.93595 507.2881 487.3611 511.1915 486.97663 515.09487 486.5922 519.0077 486.4 522.93 486.39997 526.8523 486.4 530.76516 486.59223 534.6685 486.97669 538.5719 487.3611 542.447 487.93595 546.29397 488.7011 550.14089 489.4663 553.94107 490.4182 557.69448 491.5568 561.4478 492.69535 565.13638 494.0151 568.7601 495.51609 572.38388 497.01713 575.9253 498.6921 579.3844 500.54106 582.84359 502.39 586.20376 504.40403 589.465 506.5831 592.7263 508.7622 595.8729 511.09593 598.90487 513.5842 601.9368 516.07247 604.83956 518.7033 607.61306 521.4768 610.38656 524.2503 613.0174 527.153 615.5056 530.185 617.99398 533.2169 620.32766 536.3635 622.5067 539.6248 624.6858 542.8861 626.6998 546.24636 628.5488 549.7055 630.39779 553.16458 632.07278 556.706 633.5737 560.3297 635.07479 563.9535 636.39456 567.6421 637.53317 571.39547 638.67178 575.1488 639.6236 578.949 640.3888 582.7959 641.15408 586.6429 641.7289 590.51809 642.11337 594.42147 642.4978 598.3249 642.69009 602.23776 642.69 606.16Z" fill="#ffffff"/>
<path transform="matrix(.3279339,0,0,.3276316,441.4035,343.50773)" d="M614.02 606.1599C614.02 608.349 613.9127 610.53286 613.6982 612.7114 613.4836 614.88998 613.1627 617.0527 612.73568 619.1997 612.3086 621.34677 611.77737 623.46768 611.14187 625.5625 610.5064 627.65737 609.7698 629.716 608.932 631.7384 608.0943 633.76089 607.1595 635.7374 606.12759 637.668 605.09567 639.59866 603.97158 641.47409 602.7554 643.2942 601.5392 645.1143 600.23678 646.8705 598.848 648.5627 597.4593 650.2549 595.99099 651.87496 594.443 653.4229 592.89517 654.9709 591.2751 656.4392 589.5829 657.82797 587.8907 659.2167 586.1345 660.51919 584.3143 661.73538 582.4941 662.9516 580.6187 664.0756 578.6881 665.10757 576.7575 666.13949 574.781 667.0743 572.7585 667.912 570.7361 668.74978 568.6774 669.4864 566.5826 670.1218 564.48776 670.75729 562.36679 671.2886 560.2197 671.71566 558.07278 672.1427 555.91 672.46359 553.73147 672.67819 551.5529 672.8927 549.36917 672.99996 547.18 672.99996 544.99087 672.99996 542.80709 672.8927 540.62857 672.67819 538.45 672.46359 536.2872 672.1427 534.1401 671.71566 531.99307 671.2886 529.87216 670.7573 527.77737 670.1219 525.68258 669.4864 523.6239 668.74978 521.6014 667.912 519.579 667.0743 517.6024 666.13949 515.6718 665.10757 513.7412 664.0756 511.86585 662.9516 510.04566 661.73538 508.22554 660.51919 506.46937 659.2167 504.7772 657.82797 503.08497 656.4392 501.4649 654.9709 499.91697 653.4229 498.36906 651.87496 496.90074 650.2549 495.51197 648.5627 494.1232 646.8705 492.82075 645.1143 491.60453 643.2941 490.38835 641.474 489.26429 639.59866 488.23234 637.668 487.2004 635.7374 486.2656 633.76089 485.42787 631.7384 484.59016 629.716 483.85356 627.65737 483.21809 625.5625 482.58265 623.46768 482.0514 621.34677 481.6243 619.1997 481.19725 617.0527 480.87644 614.88998 480.66188 612.7114 480.4473 610.53286 480.34004 608.349 480.34 606.1599 480.34004 603.9708 480.4473 601.787 480.66188 599.60848 480.87644 597.4299 481.19725 595.2671 481.6243 593.12008 482.0514 590.973 482.58265 588.8521 483.2181 586.75729 483.85359 584.6624 484.59016 582.60379 485.42787 580.5813 486.2656 578.5589 487.2004 576.5824 488.23234 574.6518 489.26429 572.7212 490.38835 570.84579 491.60456 569.0256 492.82078 567.20547 494.12324 565.4493 495.51197 563.75717 496.90074 562.06497 498.36906 560.4448 499.91694 558.8969 501.46488 557.349 503.08494 555.8807 504.77717 554.4919 506.46934 553.10317 508.2255 551.80068 510.04563 550.5845 511.86585 549.3683 513.7412 548.2442 515.6718 547.2123 517.6024 546.18038 519.579 545.2455 521.6014 544.4077 523.6239 543.57 525.68258 542.83346 527.77737 542.198 529.87216 541.56259 531.99307 541.0313 534.1401 540.60427 536.2872 540.1772 538.45 539.8564 540.62857 539.64187 542.80709 539.4273 544.99087 539.32 547.18 539.31997 549.36917 539.32 551.5529 539.4273 553.73147 539.64187 555.91 539.8564 558.07278 540.1772 560.2198 540.60427 562.3668 541.0313 564.48776 541.56259 566.5826 542.198 568.6774 542.83346 570.7361 543.57 572.7585 544.4077 574.781 545.2455 576.7575 546.18038 578.6881 547.2123 580.6187 548.2442 582.4941 549.3683 584.3143 550.5845 586.1345 551.80068 587.8907 553.10317 589.5829 554.4919 591.2751 555.8806 592.89517 557.34896 594.443 558.89688 595.99099 560.44479 597.4593 562.0648 598.848 563.757 600.23678 565.4492 601.5392 567.2054 602.7554 569.0255 603.97158 570.84567 605.09567 572.72109 606.12759 574.65176 607.1595 576.58236 608.0943 578.55886 608.932 580.58126 609.7698 582.60379 610.5064 584.6624 611.14187 586.7572 611.77737 588.85208 612.3086 590.97299 612.73568 593.12 613.1627 595.267 613.4836 597.4299 613.6982 599.60848 613.9127 601.787 614.02 603.9708 614.02 606.1599Z"/>
<path transform="matrix(.3279339,0,0,.3276316,441.4035,343.50773)" d="M1088.25 616.46C1088.2501 620.3823 1088.0579 624.2952 1087.6732 628.1986 1087.2888 632.102 1086.714 635.9771 1085.9487 639.824 1085.1836 643.67098 1084.2317 647.4711 1083.0932 651.2245 1081.9546 654.97787 1080.6348 658.6664 1079.1337 662.2901 1077.6326 665.9138 1075.9577 669.4553 1074.1088 672.9145 1072.2598 676.37368 1070.2457 679.7338 1068.0665 682.99508 1065.8876 686.25637 1063.554 689.40298 1061.0656 692.43496 1058.5774 695.46688 1055.9465 698.36959 1053.173 701.14309 1050.3997 703.91659 1047.497 706.5474 1044.465 709.03567 1041.4329 711.524 1038.2863 713.85769 1035.0249 716.03677 1031.7637 718.2159 1028.4035 720.22988 1024.9443 722.0788 1021.4852 723.9278 1017.9438 725.6028 1014.32 727.10379 1010.6963 728.6048 1007.00778 729.92459 1003.2544 731.0632 999.501 732.2017 995.7008 733.1536 991.8539 733.9188 988.007 734.6841 984.1319 735.2589 980.2285 735.6433 976.32516 736.0278 972.4123 736.22006 968.49 736.22006 964.56777 736.22006 960.6549 736.02786 956.7515 735.6434 952.84817 735.2589 948.9729 734.6841 945.1259 733.9188 941.279 733.1536 937.4788 732.2017 933.72549 731.0632 929.9721 729.92459 926.2835 728.6048 922.6597 727.10379 919.036 725.6028 915.4946 723.9278 912.0355 722.07888 908.57638 720.2299 905.2161 718.2159 901.95486 716.03677 898.69357 713.85769 895.547 711.524 892.5151 709.0357 889.48306 706.5474 886.5803 703.91659 883.8068 701.14309 881.0333 698.36959 878.40249 695.46688 875.9142 692.43496 873.4259 689.40298 871.0922 686.25637 868.9131 682.99508 866.734 679.7338 864.72 676.3736 862.871 672.9144 861.02206 669.45529 859.34707 665.9138 857.846 662.2901 856.34506 658.6664 855.02529 654.97787 853.8867 651.2245 852.74819 647.4711 851.79629 643.67098 851.03109 639.824 850.2659 635.9771 849.69119 632.102 849.3067 628.1986 848.92227 624.2952 848.73 620.3823 848.73 616.46 848.73 612.5378 848.92227 608.62496 849.3067 604.7215 849.69119 600.81808 850.266 596.9429 851.0311 593.0959 851.7964 589.249 852.7483 585.44888 853.88687 581.6955 855.0254 577.942 856.34518 574.2535 857.8461 570.62979 859.3471 567.00607 861.0221 563.46469 862.87106 560.0055 864.72006 556.5463 866.7341 553.18618 868.91317 549.92489 871.0923 546.6636 873.42599 543.51699 875.91427 540.48507 878.40249 537.4531 881.0333 534.55038 883.8068 531.77688 886.5803 529.00338 889.48306 526.3725 892.515 523.8843 895.54696 521.396 898.69357 519.0623 901.95486 516.8832 905.2161 514.7041 908.57638 512.69009 912.0355 510.8411 915.4946 508.99214 919.036 507.31715 922.6597 505.81614 926.2835 504.31517 929.9721 502.9954 933.72549 501.8568 937.4788 500.71827 941.279 499.7664 945.1259 499.00117 948.9729 498.236 952.84817 497.66117 956.7515 497.2767 960.6549 496.89228 964.56777 496.70005 968.49 496.7 972.4123 496.70005 976.32516 496.89228 980.2285 497.2767 984.1319 497.66117 988.007 498.236 991.8539 499.00117 995.7008 499.7664 999.501 500.71827 1003.2544 501.8568 1007.00778 502.9954 1010.6963 504.31517 1014.32 505.81614 1017.9438 507.31715 1021.4853 508.99214 1024.9445 510.8411 1028.4036 512.69009 1031.7638 514.70407 1035.025 516.8831 1038.2864 519.06228 1041.433 521.39596 1044.465 523.8842 1047.497 526.3725 1050.3997 529.00338 1053.173 531.77688 1055.9465 534.55038 1058.5774 537.4531 1061.0656 540.48507 1063.554 543.51699 1065.8876 546.6636 1068.0665 549.92489 1070.2457 553.18618 1072.2598 556.5464 1074.1088 560.00558 1075.9577 563.46469 1077.6326 567.00607 1079.1337 570.62979 1080.6348 574.2535 1081.9546 577.942 1083.0932 581.6955 1084.2317 585.4489 1085.1836 589.2491 1085.9487 593.09597 1086.714 596.94296 1087.2888 600.8181 1087.6732 604.7215 1088.0579 608.62496 1088.2501 612.5378 1088.25 616.46Z" fill="#ffffff"/>
<path transform="matrix(.3279339,0,0,.3276316,441.4035,343.50773)" d="M1010.59 606.1599C1010.5901 608.349 1010.4828 610.53286 1010.2682 612.7114 1010.0536 614.88998 1009.7327 617.0527 1009.3056 619.1997 1008.87857 621.34677 1008.3473 623.46768 1007.71188 625.5625 1007.07638 627.65737 1006.3397 629.716 1005.50198 631.7384 1004.66427 633.76089 1003.72946 635.7374 1002.6975 637.668 1001.6656 639.59866 1000.5415 641.47409 999.32528 643.2942 998.10916 645.1143 996.8067 646.8705 995.41799 648.5627 994.02926 650.2549 992.5609 651.87496 991.01296 653.4229 989.465 654.9709 987.84506 656.4392 986.15286 657.82797 984.4606 659.2167 982.70437 660.51919 980.88418 661.73538 979.064 662.9516 977.1886 664.0756 975.258 665.10757 973.32748 666.13949 971.35098 667.0743 969.3284 667.912 967.306 668.74978 965.2474 669.4864 963.1525 670.1218 961.0577 670.75729 958.93679 671.2886 956.78976 671.71566 954.6427 672.1427 952.48 672.46359 950.30148 672.67819 948.1229 672.8927 945.9391 672.99996 943.75 672.99996 941.5609 672.99996 939.3771 672.8927 937.1985 672.67819 935.01998 672.46359 932.8571 672.1427 930.7101 671.71566 928.56307 671.2886 926.44216 670.7573 924.34738 670.1219 922.2525 669.4864 920.19387 668.74978 918.1714 667.912 916.1489 667.0743 914.1724 666.13949 912.2418 665.10757 910.3112 664.0756 908.43588 662.9516 906.6156 661.73538 904.7955 660.51919 903.03939 659.2167 901.3472 657.82797 899.655 656.4392 898.035 654.9709 896.487 653.4229 894.9391 651.87496 893.47079 650.2549 892.08206 648.5627 890.69326 646.8705 889.39077 645.1143 888.17459 643.2941 886.9584 641.474 885.8343 639.59866 884.80239 637.668 883.7704 635.7374 882.8355 633.76089 881.9978 631.7384 881.1601 629.716 880.4235 627.65737 879.7881 625.5625 879.15267 623.46768 878.6214 621.34677 878.19436 619.1997 877.7673 617.0527 877.4465 614.88998 877.2319 612.7114 877.01736 610.53286 876.91006 608.349 876.91006 606.1599 876.91006 603.9708 877.01736 601.787 877.2319 599.60848 877.4464 597.4299 877.7672 595.2671 878.1943 593.12008 878.62136 590.973 879.15267 588.8521 879.7881 586.75729 880.4235 584.6624 881.1601 582.60379 881.9978 580.5813 882.8355 578.5589 883.7704 576.5824 884.8023 574.6518 885.8343 572.7212 886.9584 570.84579 888.1745 569.0256 889.3907 567.20547 890.6932 565.4493 892.082 563.75717 893.4707 562.06497 894.939 560.4448 896.48696 558.8969 898.03488 557.349 899.6549 555.8807 901.3471 554.4919 903.0393 553.10317 904.7954 551.80068 906.61557 550.5845 908.4358 549.3683 910.3112 548.2442 912.2418 547.2123 914.1724 546.18038 916.1489 545.2455 918.1713 544.4077 920.1938 543.57 922.25247 542.83346 924.34738 542.198 926.44216 541.56259 928.56307 541.0313 930.7101 540.60427 932.8571 540.1772 935.01998 539.8564 937.1985 539.64187 939.3771 539.4273 941.5609 539.32 943.75 539.31997 945.9391 539.32 948.1229 539.4273 950.30148 539.64187 952.48 539.8564 954.6427 540.1772 956.7897 540.60427 958.9367 541.0313 961.0577 541.56259 963.15249 542.198 965.24728 542.83346 967.3059 543.57 969.32839 544.4077 971.3509 545.2455 973.32748 546.18038 975.25808 547.2123 977.18869 548.2442 979.064 549.3683 980.88418 550.5845 982.70437 551.80068 984.4606 553.10317 986.1528 554.4919 987.845 555.8806 989.465 557.34896 991.01296 558.89688 992.5609 560.44479 994.02926 562.0648 995.4179 563.757 996.80667 565.4492 998.10916 567.2054 999.32528 569.0255 1000.5415 570.84567 1001.6656 572.72109 1002.6975 574.65176 1003.72946 576.58236 1004.6643 578.55886 1005.502 580.58126 1006.3398 582.60379 1007.0764 584.6624 1007.7119 586.7572 1008.34738 588.85208 1008.8786 590.97299 1009.3056 593.12 1009.7327 595.267 1010.0536 597.4299 1010.2682 599.60848 1010.4828 601.787 1010.5901 603.9708 1010.59 606.1599Z"/>
<path transform="matrix(.3279339,0,0,.3276316,441.4035,343.50773)" d="M744.66 703.79 774.19 667.27999C775.68 665.43997 774.37 662.70999 772.01 662.70999H712.95C710.59 662.70999 709.28 665.44998 710.77 667.27999L740.30007 703.79C741.41 705.18 743.53 705.18 744.66 703.79Z" fill="#ffffff"/>
</g>
<g clip-path="url(#clip_9)">
<use data-text="g" xlink:href="#font_10_74" transform="matrix(257.9475,0,0,-257.9475,265.17625,1265.5834)" fill="#000000"/>
<use data-text="a" xlink:href="#font_10_68" transform="matrix(257.9475,0,0,-257.9475,422.78166,1265.5834)" fill="#000000"/>
<use data-text="t" xlink:href="#font_10_87" transform="matrix(257.9475,0,0,-257.9475,578.5814,1265.5834)" fill="#000000"/>
<use data-text="e" xlink:href="#font_10_72" transform="matrix(257.9475,0,0,-257.9475,661.8981,1265.5834)" fill="#000000"/>
<use data-text="." xlink:href="#font_10_17" transform="matrix(257.9475,0,0,-257.9475,798.8677,1265.5834)" fill="#000000"/>
<use data-text="c" xlink:href="#font_10_70" transform="matrix(257.9475,0,0,-257.9475,870.3208,1265.5834)" fill="#cbdd1a"/>
<use data-text="a" xlink:href="#font_10_68" transform="matrix(257.9475,0,0,-257.9475,977.1106,1265.5834)" fill="#cbdd1a"/>
<use data-text="t" xlink:href="#font_10_87" transform="matrix(257.9475,0,0,-257.9475,1132.9104,1265.5834)" fill="#cbdd1a"/>
</g>
<path transform="matrix(1,0,0,-1,0,1507.9199)" d="M438.18113 590.36587H1061.8189V1357.9199H438.18113Z" fill-opacity="0"/>
<path transform="matrix(1,0,0,-1,0,1507.9199)" d="M508.62904 588.2156H984.64089V1133.6149H508.62904Z" fill-opacity="0"/>
</g>
</svg>
